<?xml version="1.0" standalone="no"?>
<!DOCTYPE svg PUBLIC "-//W3C//DTD SVG 20010904//EN"
 "http://www.w3.org/TR/2001/REC-SVG-20010904/DTD/svg10.dtd">
<svg version="1.0" xmlns="http://www.w3.org/2000/svg"
 width="200.000000pt" height="200.000000pt" viewBox="0 0 200.000000 200.000000"
 preserveAspectRatio="xMidYMid meet">

<g transform="translate(0.000000,200.000000) scale(0.100000,-0.100000)"
fill="#000000" stroke="none">
<path d="M762 1568 c-17 -17 -17 -479 0 -496 17 -17 489 -17 506 0 17 17 17
479 0 496 -17 17 -489 17 -506 0z m448 -243 l0 -195 -195 0 -195 0 0 195 0
195 195 0 195 0 0 -195z"/>
<path d="M945 1340 c-49 -49 -58 -63 -49 -77 18 -29 32 -26 76 15 l43 40 43
-40 c45 -41 58 -44 76 -15 9 14 0 28 -49 77 -33 33 -64 60 -70 60 -6 0 -37
-27 -70 -60z"/>
<path d="M172 988 c-17 -17 -17 -479 0 -496 17 -17 489 -17 506 0 17 17 17
479 0 496 -17 17 -489 17 -506 0z m453 -248 l0 -195 -197 -3 -198 -2 0 200 0
200 198 -2 197 -3 0 -195z"/>
<path d="M406 801 c-67 -68 -67 -67 13 -146 42 -40 55 -48 68 -39 29 18 26 31
-16 77 l-41 44 31 29 c43 40 53 62 38 80 -19 23 -32 17 -93 -45z"/>
<path d="M762 988 c-17 -17 -17 -479 0 -496 17 -17 489 -17 506 0 17 17 17
479 0 496 -17 17 -489 17 -506 0z m453 -248 l0 -195 -197 -3 -198 -2 0 200 0
200 198 -2 197 -3 0 -195z"/>
<path d="M902 808 c-20 -20 -14 -31 51 -96 l63 -62 62 63 c63 63 75 90 46 101
-20 8 -41 -4 -78 -43 l-29 -31 -43 40 c-47 43 -54 46 -72 28z"/>
<path d="M1352 988 c-17 -17 -17 -479 0 -496 17 -17 489 -17 506 0 16 16 17
460 2 489 -10 18 -24 19 -253 19 -176 0 -246 -3 -255 -12z m448 -248 l0 -200
-197 2 -198 3 -3 185 c-1 101 0 190 2 197 4 10 51 13 201 13 l195 0 0 -200z"/>
<path d="M1531 846 c-15 -18 -5 -40 38 -80 l31 -29 -41 -44 c-42 -45 -45 -59
-16 -77 13 -8 25 -3 58 29 22 22 50 53 61 68 l21 29 -59 59 c-61 62 -74 68
-93 45z"/>
</g>
</svg>
